<svg viewBox="0 0 1162.000000 238.000000">
    <g transform="translate(0.000000,238.000000) scale(0.100000,-0.100000)"
    fill="#000000">
        <path d="M477 2233 c-4 -3 -7 -34 -7 -67 0 -34 -4 -66 -8 -73 -4 -7 -37 -13
        -77 -15 l-70 -3 -3 -55 c-4 -101 -3 -99 -85 -102 l-72 -3 0 -715 0 -715 72 -3
        c82 -3 81 -1 85 -102 l3 -55 72 -3 c82 -3 81 -1 85 -102 l3 -55 5352 -3 5353
        -2 5 22 c3 13 6 48 7 78 l3 55 72 3 c82 3 81 1 85 102 l3 55 70 3 c40 2 73 8
        77 15 10 16 10 1398 0 1414 -4 7 -37 13 -77 15 l-70 3 -3 55 c-4 101 -3 99
        -85 102 l-72 3 -3 55 c-1 30 -4 65 -7 78 l-5 22 -5349 0 c-2941 0 -5351 -3
        -5354 -7z m10548 -175 c3 -13 6 -48 7 -78 l3 -55 72 -3 c82 -3 81 -1 85 -102
        l3 -55 70 -3 c40 -2 73 -8 77 -15 10 -16 10 -1078 0 -1094 -4 -7 -37 -13 -77
        -15 l-70 -3 -3 -55 c-4 -101 -3 -99 -85 -102 l-72 -3 -3 -55 c-1 -30 -4 -65
        -7 -78 l-5 -22 -5193 2 -5192 3 -3 55 c-4 101 -3 99 -85 102 l-72 3 -3 55 c-4
        101 -3 99 -85 102 l-72 3 0 555 0 555 72 3 c82 3 81 1 85 102 l3 55 70 3 c40
        2 73 8 77 15 4 7 8 39 8 73 0 33 3 64 7 67 3 4 2341 7 5194 7 l5189 0 5 -22z"/>
    </g>
    <g class="task task-1">
        <path d="M795 1908 c-3 -7 -4 -330 -3 -718 l3 -705 709 -3 c561 -2 711 0 718
        10 9 15 11 1388 2 1412 -6 14 -78 16 -715 16 -559 0 -711 -3 -714 -12z"/>
    </g>
    <g class="task task-2">
        <path d="M2395 1908 c-3 -7 -4 -330 -3 -718 l3 -705 789 -3 c625 -2 791 0 798
        10 9 15 11 1388 2 1412 -6 14 -85 16 -795 16 -623 0 -791 -3 -794 -12z"/>
    </g>
    <g class="task task-3">
        <path d="M4155 1908 c-3 -7 -4 -330 -3 -718 l3 -705 789 -3 c625 -2 791 0 798
        10 9 15 11 1388 2 1412 -6 14 -85 16 -795 16 -623 0 -791 -3 -794 -12z"/>
    </g>
    <g class="task task-4">
        <path d="M5915 1908 c-3 -7 -4 -330 -3 -718 l3 -705 789 -3 c625 -2 791 0 798
        10 9 15 11 1388 2 1412 -6 14 -85 16 -795 16 -623 0 -791 -3 -794 -12z"/>
    </g>
    <g class="task task-5">
        <path d="M7675 1908 c-3 -7 -4 -330 -3 -718 l3 -705 789 -3 c625 -2 791 0 798
        10 9 15 11 1388 2 1412 -6 14 -85 16 -795 16 -623 0 -791 -3 -794 -12z"/>
    </g>
    <g class="task task-6">
        <path d="M9435 1908 c-3 -7 -4 -330 -3 -718 l3 -705 709 -3 c561 -2 711 0 718
        10 9 15 11 1388 2 1412 -6 14 -78 16 -715 16 -559 0 -711 -3 -714 -12z"/>
    </g>  
</svg>
